<?xml version="1.0" encoding="utf-8"?>
<!-- Generator: Adobe Illustrator 19.0.0, SVG Export Plug-In . SVG Version: 6.00 Build 0)  -->
<svg version="1.1" id="Layer_1" xmlns="http://www.w3.org/2000/svg" xmlns:xlink="http://www.w3.org/1999/xlink" x="0px" y="0px"
	 viewBox="0 0 523.2 107.6" style="enable-background:new 0 0 523.2 107.6;" xml:space="preserve">
<style type="text/css">
	.st0{fill:#013C6C;}
	.st1{fill:#003C6C;}
	.st2{fill:#013D6C;}
</style>
<g>
	<path class="st0" d="M232,56c0-17.7,0-34.1,0.1-50.5c0-1.6-1.2-4.2,1.1-4.7c2.5-0.6,5.4-0.5,7.9,0.1c1.5,0.4,0.7,2.7,0.7,4.1
		c0,26.8,0,53.7,0,80.5c0,5.8-0.3,11.7,0.1,17.5c0.3,4.6-2.5,3.8-5.1,3.7c-2.5,0-5.3,0.9-5-3.7c1.8-21.7-7.2-41.4-11.6-61.9
		c-0.1-0.6-0.4-1.1-1.2-2.8c0,22.1-0.1,42.9,0.1,63.7c0,3.5-0.6,5.1-4.5,4.8c-3.2-0.3-5.4,0-5.4-4.6c0.2-32.5,0.1-65,0.2-97.5
		c0-1.7-1.1-4.5,2.4-4.2c2.8,0.2,6.1-1.5,7.2,3.5c3.7,16.6,7.8,33,11.8,49.5C231,54,231.3,54.4,232,56z"/>
	<path class="st0" d="M436.5,65.8c0-6.2-0.3-12.1-7.1-15.5c4.3-2.5,7.2-5.1,7.1-10c-0.2-9,0.1-18-0.1-27
		c-0.2-7.9-3.1-11.1-11.1-11.8c-5.8-0.5-11.7-0.2-17.5-0.7c-3.5-0.3-4,1.3-4,4.3c0.1,32.5,0.1,65,0,97.5c0,3.9,1.6,4.3,4.7,4.1
		c2.7-0.2,5.5,0.8,5.4-4c-0.3-14.5-0.1-29-0.1-43.5c0-6.6,1.5-7.6,7.9-5.7c4.3,1.3,4.8,4.5,4.8,8.2c0,13.7,0.2,27.3-0.1,41
		c-0.1,4.2,2,4,4.8,3.9c2.7-0.1,5.5,0.8,5.4-3.9C436.3,90.5,436.4,78.1,436.5,65.8z M426.7,38.7c-0.1,3.5-0.1,7.1-4.2,8.7
		c-6.8,2.8-8.7,1.6-8.7-5.6v-15c0-6.1,0.1-12.3-0.1-18.5c0-2.4,0.7-3.1,3.1-3.1c8.4-0.3,10,1.1,10,9.4
		C426.8,22.7,426.9,30.7,426.7,38.7z"/>
	<path class="st0" d="M22.8,51c0-15.3,0.2-30.7-0.1-46c-0.1-4.1,1.5-4.5,4.9-4.5c3.3,0,5,0.3,5,4.5c-0.2,30-0.1,60-0.1,89.9
		c0,7.5-2.5,10.4-9.9,12c-3.3,0.7-6.6,0.7-9.9,0.3c-9.1-1-12.5-4.9-12.5-14.1C0.1,63.9,0.2,34.6,0,5.3c0-4.4,1.8-4.7,5.2-4.7
		c3.5-0.1,4.8,0.5,4.8,4.5c-0.2,30.5-0.1,61-0.1,91.4c0,5.3,3.3,7.8,8.4,6.6c3.6-0.8,4.5-3.2,4.5-6.7C22.7,81.3,22.8,66.2,22.8,51z"
		/>
	<path class="st0" d="M459,51.2c0,14.7,0,29.3,0,44c0,6.3,1.3,8,6,8.1c5,0.1,6.8-2,6.8-8.1c0-29.8,0-59.6,0-89.4
		c0-4.6,4.2-7.1,8.5-5c2,1,1.2,2.9,1.2,4.4c0.1,22.6,0,45.3,0,67.9c0,7.2,0.1,14.3,0,21.5c-0.1,7.9-2.9,11.2-10.7,12.4
		c-2.9,0.4-6,0.5-8.9,0.2c-9.5-0.9-12.7-4.7-12.7-14.2c0-29.1,0.1-58.3-0.1-87.4c0-4.5,1.6-4.9,5.4-5.1c4.5-0.2,4.6,1.8,4.6,5.3
		C458.9,20.9,459,36.1,459,51.2z"/>
	<path class="st1" d="M322.1,57.4c0-15,0-30,0-45c0-7.7-2.8-10.8-10.4-12c-3.5-0.5-7-0.5-10.4-0.1c-8.4,1-11.4,4.3-11.5,12.7
		c0,29.8,0.1,59.7-0.1,89.5c0,4.4,2,4.1,5,4.3c3.5,0.2,5-0.6,4.9-4.6c-0.3-13.5-0.1-27-0.1-40.5c0-8.4,0-8.2,8.3-8.5
		c3.6-0.1,4.8,0.7,4.8,4.6c-0.3,15,0.1,30-0.2,45c-0.1,4.3,2.3,3.8,5,3.9c2.8,0,5,0.4,4.9-3.9C321.9,87.7,322.1,72.5,322.1,57.4z
		 M308.8,47.6c-9.4,0.1-9.4,0.2-9.4-9.3c0-9-0.1-18,0-27c0.1-5.3,2.1-7.3,6.7-7.3c4.5,0,6.3,2.1,6.4,7.5c0,5.2,0,10.3,0,15.5
		c0,5.7-0.1,11.3,0.1,17C312.7,46.9,311.6,47.6,308.8,47.6z"/>
	<path class="st1" d="M180.4,0c-2-0.1-4,0.1-6,0.3c-8.6,1-11.6,4.2-11.6,13c0,29.7,0.1,59.3-0.1,89c0,4.2,1.6,4.4,4.9,4.4
		c3.3,0,5.1-0.2,5-4.4c-0.3-13.5-0.1-27-0.1-40.5c0-8.6,0-8.4,8.7-8.6c3.5-0.1,4.4,1,4.4,4.4c-0.2,14.8,0.1,29.7-0.2,44.5
		c-0.1,4.6,2.1,4.4,5.3,4.6c3.9,0.3,4.6-1.2,4.6-4.8c-0.2-15-0.1-30-0.1-45c0-14-0.3-28,0.1-42C195.4,5.8,194.1,0.7,180.4,0z
		 M185.5,11.1c-0.2,5.3,0,10.7,0,16c0,5.7-0.1,11.3,0,17c0.1,2.5-0.5,3.4-3.3,3.5c-9.8,0.3-9.8,0.4-9.8-9.4c0-9-0.1-18,0-27
		c0-5.1,2.2-7.3,6.8-7.2C183.7,4.2,185.7,6.5,185.5,11.1z"/>
	<path class="st1" d="M140,85.5c2.8-14.7-4.1-26.3-12.4-37.3c-7.9-10.5-11.4-21.9-10.5-35c0.6-8.6,3.3-11.9,11.9-12.9
		c1.6-0.2,3.3-0.3,5-0.3c12.3,0.2,15.9,3.8,16,16.2c0,4.3-0.4,8.7,0.1,13c0.4,4.2-1.6,4.4-4.9,4.4c-3.4,0-5.6-0.2-5.2-4.7
		c0.5-5.8,0.2-11.7,0.1-17.5c-0.1-5.5-1.9-7.4-6.5-7.4c-4.6,0-6.2,2.2-6.7,7.3c-1,12.2,1.7,23.1,9.4,32.7c2.7,3.4,4.8,7.2,7.1,10.8
		c4.3,6.9,7,14.2,6.6,22.6c-0.3,6.1,0,12.3-0.1,18.5c-0.2,6-2.7,9.2-8.6,10.6c-2.4,0.6-4.9,0.9-7.4,0.9
		c-12.9,0.1-16.7-3.8-16.7-16.6c0-5.5-0.1-11,0-16.5c0.2-5.4,4.5-2,6.8-2.9c2.3-0.9,3.1,0.5,3.1,2.9c-0.1,7.2-0.1,14.3,0,21.5
		c0,5.3,1.9,7.4,6.5,7.5c4.6,0.1,6.4-2,6.5-7.4C140,92.5,140,89,140,85.5z"/>
	<path class="st1" d="M55.8,54c0,14.2,0,28.3,0,42.5c0,4.8,2,6.8,6.4,6.9c4.6,0,6.5-1.9,6.5-6.8c0-7.2,0.2-14.3-0.1-21.5
		c-0.2-4.7,3-3.4,5.3-3.4c2.2,0,5.2-1.3,5,3.2c-0.3,7-0.1,14-0.1,21c0,5.4-2.7,8.8-7.7,10.4c-5.9,1.9-11.9,1.7-17.7-0.1
		c-4.9-1.6-7.6-5.1-7.6-10.5c0-27.5-0.1-54.9,0.1-82.4c0-8.7,3.2-11.9,11.8-12.9C59.7,0.2,61.5,0,63.3,0
		c11.8,0.2,15.5,3.9,15.5,15.7c0,4.8-0.3,9.7,0.1,14.5c0.3,4.7-2.8,3.4-5.2,3.5c-2.3,0.1-5,0.9-4.8-3.4c0.4-5.6,0.1-11.3,0.1-17
		c0-7.2-1.5-9.3-6.7-9.2c-5.1,0.1-6.5,2.1-6.5,9.4C55.8,27,55.8,40.5,55.8,54z"/>
	<path class="st1" d="M368.8,54.2c0,14,0,28,0,42c0,5.2,2,7.3,6.6,7.1c4.6-0.1,6.3-2,6.3-7c0.1-6.8,0.3-13.7-0.1-20.5
		c-0.3-4.4,2-4.4,5.1-4.2c2.8,0.1,5.6-0.8,5.3,4c-0.4,6.5,0,13-0.1,19.5c-0.1,8.5-5.4,12.4-16.3,12.4c-11.4,0-16.6-4-16.7-12.6
		c0-27,0-53.9,0-80.9c0-9.6,3-12.8,12.5-13.8c2-0.2,4-0.3,6-0.2c10.7,0.6,14.1,4.2,14.3,14.9c0.1,5-0.3,10,0.1,15
		c0.4,4.5-2.3,3.9-5,3.8c-2.5-0.1-5.4,1-5.1-3.6c0.4-6.3,0-12.6,0.1-19c0.1-4.5-1.9-6.9-6.5-7c-4.7-0.1-6.7,2-6.7,7.2
		C368.8,25.6,368.8,39.9,368.8,54.2z"/>
	<path class="st0" d="M506.7,106.7c-4,0-8-0.2-12,0.1c-3.2,0.2-3.8-0.5-3.1-3.9c6.1-30.8,11.8-61.7,17.9-92.5c0.8-4-0.4-4.6-3.8-4.4
		c-3,0.2-6,0.1-9,0c-1.9,0-3.9,0.5-4-2.8c-0.1-3.7,2.3-2.9,4.3-2.9c7,0,14,0.2,21-0.1c3.7-0.1,4.4,0.9,3.7,4.5
		c-6,30.6-11.8,61.4-17.9,92c-0.8,4.1,0.4,4.5,3.7,4.3c4.2-0.2,8.3,0,12.5-0.1c2.2-0.1,3.3,0.5,3.3,3c0.1,2.9-1.5,2.7-3.5,2.7
		C515.4,106.7,511.1,106.7,506.7,106.7z"/>
	<path class="st2" d="M260.1,56.3c0-15.2-0.2-30.3,0.1-45.5c0.1-4-1.2-5-5-5c-2.2,0-6.5,2.4-6.6-2.3c-0.2-5.4,4.4-2.7,6.7-2.8
		c7.8-0.4,15.7-0.1,23.5-0.2c2.1,0,3.5,0.1,3.4,2.8C282.1,6,280.8,6,279,6.1c-9,0.5-9,0.5-9,9.6c0,28.7,0,57.3,0.1,86
		c0,3.4-0.1,5.5-4.6,5.2c-3.7-0.2-5.5-0.5-5.4-5C260.3,86.7,260.1,71.5,260.1,56.3z"/>
</g>
</svg>
